HIERARCHY
ROOT Hips
{
  OFFSET 5.84602e-005 68.8428 3.50346
  CHANNELS 6 Xposition Yposition Zposition Zrotation Xrotation Yrotation
  JOINT Spine
  {
    OFFSET 0 8.597 -4.6522
    CHANNELS 3 Zrotation Xrotation Yrotation
    JOINT Spine1
    {
      OFFSET 0 7.8454 0.4098
      CHANNELS 3 Zrotation Xrotation Yrotation
      JOINT Spine2
      {
        OFFSET 0 9.7078 -2.1609
        CHANNELS 3 Zrotation Xrotation Yrotation
        JOINT Neck
        {
          OFFSET 0 21.8761 -0.4549
          CHANNELS 3 Zrotation Xrotation Yrotation
          JOINT Head
          {
            OFFSET 0 12.3537 3.3602
            CHANNELS 3 Zrotation Xrotation Yrotation
            End Site
            {
              OFFSET 0.0001 18.9506 0.5657
            }
          }
        }
        JOINT LeftShoulder
        {
          OFFSET 2.2086 21.1115 7.2329
          CHANNELS 3 Zrotation Xrotation Yrotation
          JOINT LeftArm
          {
            OFFSET 13.1193 3.0282 -4.8998
            CHANNELS 3 Zrotation Xrotation Yrotation
            JOINT LeftForeArm
            {
              OFFSET 27.4081 -0.0973053 -0.2375
              CHANNELS 3 Zrotation Xrotation Yrotation
              JOINT LeftHand
              {
                OFFSET 22.8641 0.0662994 -0.1369
                CHANNELS 3 Zrotation Xrotation Yrotation
                JOINT LeftHandIndex1
                {
                  OFFSET 8.8614 0.775009 2.4612
                  CHANNELS 3 Zrotation Xrotation Yrotation
                  JOINT LeftHandIndex2
                  {
                    OFFSET 3.3146 -0.808304 0.5841
                    CHANNELS 3 Zrotation Xrotation Yrotation
                    JOINT LeftHandIndex3
                    {
                      OFFSET 2.2628 -0.552002 0.3989
                      CHANNELS 3 Zrotation Xrotation Yrotation
                      End Site
                      {
                        OFFSET 1.6102 -0.4807 0.2612
                      }
                    }
                  }
                }
                JOINT LeftHandMiddle1
                {
                  OFFSET 8.9937 0.895004 0.2143
                  CHANNELS 3 Zrotation Xrotation Yrotation
                  JOINT LeftHandMiddle2
                  {
                    OFFSET 4.0984 0.0113983 -0.0242
                    CHANNELS 3 Zrotation Xrotation Yrotation
                    JOINT LeftHandMiddle3
                    {
                      OFFSET 2.2716 0.00689697 -0.0138001
                      CHANNELS 3 Zrotation Xrotation Yrotation
                      End Site
                      {
                        OFFSET 2.0404 -0.1441 0.0027
                      }
                    }
                  }
                }
                JOINT LeftHandRing1
                {
                  OFFSET 8.5234 0.597198 -2.0164
                  CHANNELS 3 Zrotation Xrotation Yrotation
                  JOINT LeftHandRing2
                  {
                    OFFSET 3.7188 -0.188293 -0.2328
                    CHANNELS 3 Zrotation Xrotation Yrotation
                    JOINT LeftHandRing3
                    {
                      OFFSET 2.1191 -0.106598 -0.1332
                      CHANNELS 3 Zrotation Xrotation Yrotation
                      End Site
                      {
                        OFFSET 1.8737 -0.2304 -0.0886
                      }
                    }
                  }
                }
                JOINT LeftHandPinky1
                {
                  OFFSET 7.9094 -0.601089 -3.4825
                  CHANNELS 3 Zrotation Xrotation Yrotation
                  JOINT LeftHandPinky2
                  {
                    OFFSET 2.2874 -0.477005 -0.6314
                    CHANNELS 3 Zrotation Xrotation Yrotation
                    JOINT LeftHandPinky3
                    {
                      OFFSET 1.6774 -0.349396 -0.4633
                      CHANNELS 3 Zrotation Xrotation Yrotation
                      End Site
                      {
                        OFFSET 1.4888 -0.4091 -0.3416
                      }
                    }
                  }
                }
                JOINT LeftHandThumb1
                {
                  OFFSET 1.833 -1.3875 1.3896
                  CHANNELS 3 Zrotation Xrotation Yrotation
                  JOINT LeftHandThumb2
                  {
                    OFFSET 3.4129 -1.121 2.5732
                    CHANNELS 3 Zrotation Xrotation Yrotation
                    JOINT LeftHandThumb3
                    {
                      OFFSET 2.2474 -0.804199 1.6192
                      CHANNELS 3 Zrotation Xrotation Yrotation
                      End Site
                      {
                        OFFSET 1.6527 -0.5689 1.1317
                      }
                    }
                  }
                }
              }
            }
          }
        }
        JOINT RightShoulder
        {
          OFFSET -2.2086 21.1115 7.2329
          CHANNELS 3 Zrotation Xrotation Yrotation
          JOINT RightArm
          {
            OFFSET -13.1216 3.0287 -4.9007
            CHANNELS 3 Zrotation Xrotation Yrotation
            JOINT RightForeArm
            {
              OFFSET -27.4081 -0.0973053 -0.2375
              CHANNELS 3 Zrotation Xrotation Yrotation
              JOINT RightHand
              {
                OFFSET -22.8641 0.0664063 -0.1369
                CHANNELS 3 Zrotation Xrotation Yrotation
                JOINT RightHandIndex1
                {
                  OFFSET -8.8614 0.774994 2.4612
                  CHANNELS 3 Zrotation Xrotation Yrotation
                  JOINT RightHandIndex2
                  {
                    OFFSET -3.3146 -0.808304 0.5841
                    CHANNELS 3 Zrotation Xrotation Yrotation
                    JOINT RightHandIndex3
                    {
                      OFFSET -2.2628 -0.552002 0.3989
                      CHANNELS 3 Zrotation Xrotation Yrotation
                      End Site
                      {
                        OFFSET -1.6102 -0.4807 0.2612
                      }
                    }
                  }
                }
                JOINT RightHandMiddle1
                {
                  OFFSET -8.9937 0.894989 0.2143
                  CHANNELS 3 Zrotation Xrotation Yrotation
                  JOINT RightHandMiddle2
                  {
                    OFFSET -4.0984 0.0113983 -0.0242
                    CHANNELS 3 Zrotation Xrotation Yrotation
                    JOINT RightHandMiddle3
                    {
                      OFFSET -2.2716 0.00691223 -0.0138001
                      CHANNELS 3 Zrotation Xrotation Yrotation
                      End Site
                      {
                        OFFSET -2.0404 -0.1441 0.0027
                      }
                    }
                  }
                }
                JOINT RightHandRing1
                {
                  OFFSET -8.5234 0.597198 -2.0164
                  CHANNELS 3 Zrotation Xrotation Yrotation
                  JOINT RightHandRing2
                  {
                    OFFSET -3.7188 -0.188309 -0.2328
                    CHANNELS 3 Zrotation Xrotation Yrotation
                    JOINT RightHandRing3
                    {
                      OFFSET -2.1191 -0.106598 -0.1332
                      CHANNELS 3 Zrotation Xrotation Yrotation
                      End Site
                      {
                        OFFSET -1.8737 -0.2304 -0.0886
                      }
                    }
                  }
                }
                JOINT RightHandPinky1
                {
                  OFFSET -7.9094 -0.601105 -3.4825
                  CHANNELS 3 Zrotation Xrotation Yrotation
                  JOINT RightHandPinky2
                  {
                    OFFSET -2.2874 -0.477005 -0.6314
                    CHANNELS 3 Zrotation Xrotation Yrotation
                    JOINT RightHandPinky3
                    {
                      OFFSET -1.6774 -0.349396 -0.4633
                      CHANNELS 3 Zrotation Xrotation Yrotation
                      End Site
                      {
                        OFFSET -1.4888 -0.4091 -0.3416
                      }
                    }
                  }
                }
                JOINT RightHandThumb1
                {
                  OFFSET -1.833 -1.38751 1.3896
                  CHANNELS 3 Zrotation Xrotation Yrotation
                  JOINT RightHandThumb2
                  {
                    OFFSET -3.41299 -1.12099 2.5732
                    CHANNELS 3 Zrotation Xrotation Yrotation
                    JOINT RightHandThumb3
                    {
                      OFFSET -2.24741 -0.804108 1.6192
                      CHANNELS 3 Zrotation Xrotation Yrotation
                      End Site
                      {
                        OFFSET -1.6527 -0.5689 1.1317
                      }
                    }
                  }
                }
              }
            }
          }
        }
      }
    }
  }
  JOINT RightUpLeg
  {
    OFFSET -9.1966 3.8861 -0.7581
    CHANNELS 3 Zrotation Xrotation Yrotation
    JOINT RightLeg
    {
      OFFSET -0.7359 -41.0265 0
      CHANNELS 3 Zrotation Xrotation Yrotation
      JOINT RightFoot
      {
        OFFSET 0 -40.2855 0
        CHANNELS 3 Zrotation Xrotation Yrotation
        JOINT RightToeBase
        {
          OFFSET 0 -5.6122 11.7359
          CHANNELS 3 Zrotation Xrotation Yrotation
          End Site
          {
            OFFSET 0 0 7.8731
          }
        }
      }
    }
  }
  JOINT LeftUpLeg
  {
    OFFSET 9.1965 3.8864 -0.7581
    CHANNELS 3 Zrotation Xrotation Yrotation
    JOINT LeftLeg
    {
      OFFSET 0.7359 -41.0268 0
      CHANNELS 3 Zrotation Xrotation Yrotation
      JOINT LeftFoot
      {
        OFFSET 0 -40.2855 0
        CHANNELS 3 Zrotation Xrotation Yrotation
        JOINT LeftToeBase
        {
          OFFSET 0 -5.6122 11.7359
          CHANNELS 3 Zrotation Xrotation Yrotation
          End Site
          {
            OFFSET 0 0 7.8731
          }
        }
      }
    }
  }
}
MOTION
Frames:	6
Frame Time:	0.0333333
5.84602e-005 68.8428 3.50346 0 0 -0 0 0 -0 0 0 -0 0 0 -0 0 0 -0 0 0 -0 0 0 -0 0 0 -0 0 0 -0 0 0 -0 0 0 -0 0 0 -0 0 0 -0 0 0 -0 -0.0146107 -8.87603e-005 -2.63497e-007 2.99804e-018 -2.42657e-020 -1.42182e-022 0 0 -0 -0.0187562 -0.001176 5.858e-005 5.06224e-018 3.88251e-019 1.21329e-020 0 0 -0 -0.012269 -0.00324817 0.000675346 -1.74678e-018 3.88251e-019 -0 0 0 -0 0 0 -0 0 0 -0 0 0 -0 0 0 -0 0 0 -0 0 0 -0 0 0 -0 0 0 -0 0 0 -0 0 0 -0 0.0149955 -9.10982e-005 2.64101e-007 -9.69331e-018 1.21329e-020 -4.7394e-023 0 0 -0 0.0189956 -0.00119102 -5.96516e-005 -5.41541e-019 0 2.42657e-020 0 0 -0 0.0122698 -0.00324857 -0.000673756 -2.00796e-019 0 -1.94126e-019 0 0 -0 0 0 -0 0 0 -0 3.39842 1.33031 -0.0637918 -5.65207e-008 0.834868 -0.000436188 -3.39935 -2.16518 -0.0642563 -8.89002e-024 -1.18485e-023 -1.48106e-024 -3.39844 1.35642 0.0640283 -3.18788e-007 0.782166 -0.000588827 3.39931 -2.13858 0.0634662 1.1399e-023 0 -0 
23.5464 5.39099 -4.38274 0 66.6644 -0 -0 -1.18612 -0 -0 -2.37225 -0 -0 -2.37225 -0 -1.02042 -4.75701 39.2052 0.231719 3.05227 12.5762 -0 -0.000144058 -0 8.85975 -41.1482 -27.0153 14.7898 0.851858 -86.7776 11.1096 14.8126 4.78888e-005 3.97569e-015 -1.19271e-014 -3.18055e-015 3.18055e-015 -6.36111e-015 -0 3.97569e-015 -1.59028e-015 -6.36111e-015 3.97569e-015 -1.19271e-014 -3.18055e-015 -0.0145835 -8.80059e-005 1.73669e-006 3.88424e-030 3.49861e-014 -6.36111e-015 3.97569e-015 -1.19271e-014 -3.18055e-015 -0.0187968 -0.00118106 6.40259e-005 -2.38542e-015 -2.38542e-015 -3.18055e-015 3.97569e-015 -1.19271e-014 -3.18055e-015 -0.0122798 -0.00324961 0.000673439 1.59028e-015 -6.36111e-015 -3.18055e-015 3.97569e-015 -1.19271e-014 -3.18055e-015 3.18055e-015 -6.36111e-015 -0 3.97569e-015 -1.59028e-015 -6.36111e-015 -0 -0.000144058 -0 -33.3101 -41.1465 27.0097 -14.7915 0.85325 86.7737 -11.8529 14.8147 -0.00142175 -7.71201e-007 -1.19875e-006 -3.50502e-006 -1.95313e-006 -1.38466e-008 1.40028e-006 -7.71201e-007 -1.19875e-006 -3.50502e-006 -7.71201e-007 -1.19875e-006 -3.50502e-006 0.0149768 -9.16189e-005 -7.6905e-007 -7.60606e-007 -1.30594e-006 -3.97795e-006 -7.71201e-007 -1.19875e-006 -3.50502e-006 0.0190396 -0.00119591 -5.64114e-005 -7.60134e-007 -1.30622e-006 -3.97791e-006 -7.71201e-007 -1.19875e-006 -3.50502e-006 0.0122734 -0.00324816 -0.000677619 -7.61047e-007 -1.30625e-006 -3.97805e-006 -7.71201e-007 -1.19875e-006 -3.50502e-006 -1.95313e-006 -1.38466e-008 1.40028e-006 -7.71201e-007 -1.19875e-006 -3.50502e-006 -0.981656 0.0352512 -0.0865808 -1.6621e-006 5.68364 -1.65247 -4.79041 43.7999 1.92667 7.00822e-008 1.40693e-006 1.50595e-007 0.977615 -0.178405 0.151177 -1.10124e-007 8.32181 1.72648 4.7698 43.5933 -1.90839 7.1107e-007 -8.0413e-009 5.69707e-007 
34.1423 -20.4941 -6.65474 -180 83.3366 -180 -0 -1.71993 -0 -0 -3.43987 -0 -0 -3.43987 -0 0.348261 -4.87695 56.9316 -0.093557 4.16152 18.2621 0 7.72637e-005 -0 -5.66193 -52.0979 -52.1134 17.7281 -12.3299 -123.737 16.1089 21.4782 5.81001e-005 2.5842e-015 1.59028e-015 -0 -9.12797e-008 -8.40683e-007 1.01997e-007 1.78906e-015 -4.77083e-015 1.59028e-015 2.5842e-015 1.59028e-015 -0 -0.0146141 -8.95101e-005 -9.56195e-007 3.57812e-015 -1.59028e-015 1.59028e-015 2.5842e-015 1.59028e-015 -0 -0.0187702 -0.00117871 5.66228e-005 1.19271e-015 4.77083e-015 -3.18055e-015 2.5842e-015 1.59028e-015 -0 -0.0122476 -0.00324376 0.000675657 -5.96354e-016 1.59028e-015 -0 2.5842e-015 1.59028e-015 -0 -9.12797e-008 -8.40683e-007 1.01997e-007 1.78906e-015 -4.77083e-015 1.59028e-015 0 7.72637e-005 -0 -29.7946 -52.0986 52.1031 -17.7305 -12.3332 123.729 -17.1864 21.4813 -0.00214814 9.44227e-016 1.73937e-016 3.18055e-015 -4.16865e-008 -2.07308e-007 -2.84199e-008 -3.10601e-015 8.94531e-016 -3.18055e-015 9.44227e-016 1.73937e-016 3.18055e-015 0.0150097 -9.15707e-005 7.63464e-007 -1.06847e-015 -2.48481e-015 -0 9.44227e-016 1.73937e-016 3.18055e-015 0.0190256 -0.00119316 -6.05529e-005 5.64051e-015 4.96962e-017 -1.27222e-014 9.44227e-016 1.73937e-016 3.18055e-015 0.0122707 -0.00324876 -0.000676406 1.76421e-015 1.44119e-015 -6.36111e-015 9.44227e-016 1.73937e-016 3.18055e-015 -4.16865e-008 -2.07308e-007 -2.84199e-008 -3.10601e-015 8.94531e-016 -3.18055e-015 -2.93565 -2.17073 -0.0754263 -5.71233e-008 10.6357 -2.60056 -7.77069 63.27 4.79166 -1.68983e-008 -8.59223e-007 4.24405e-007 2.93165 -2.33564 0.171541 -7.20184e-007 14.1406 2.70001 7.72009 63.1471 -4.74899 1.98785e-016 0 7.95139e-016 
31.7877 -14.8385 -6.28887 0 89.9969 -0 -0 -1.60131 -0 -0 -3.20259 -0 -0 -3.20261 -0 -0.00189633 -5.00288 52.9987 -0.0014467 3.59883 16.9969 -0 -9.63576e-006 -0 -1.18571 -50.502 -45.5449 17.9662 -8.93357 -115.585 14.998 19.997 5.48549e-005 -1.59028e-015 0 -3.18055e-015 -7.95139e-016 0 -3.18055e-015 -1.19271e-015 0 -3.18055e-015 -1.59028e-015 0 -3.18055e-015 -0.0146181 -8.84567e-005 -1.41628e-006 -3.97569e-016 -1.59028e-015 -3.18055e-015 -1.59028e-015 0 -3.18055e-015 -0.0187488 -0.00117505 6.0476e-005 -1.98785e-015 0 6.36111e-015 -1.59028e-015 0 -3.18055e-015 -0.0122357 -0.00324083 0.000672164 2.42517e-014 -1.59028e-014 3.18055e-015 -1.59028e-015 0 -3.18055e-015 -7.95139e-016 0 -3.18055e-015 -1.19271e-015 0 -3.18055e-015 -0 -9.63576e-006 -0 -31.8251 -50.5018 45.5355 -17.9686 -8.93559 115.579 -16.0012 19.9998 -0.00197685 -3.97569e-016 0 -3.18055e-015 2.11132e-007 -2.49303e-008 1.78051e-008 3.97569e-016 -1.59028e-015 1.59028e-015 -3.97569e-016 0 -3.18055e-015 0.0149992 -9.20656e-005 -1.21917e-006 -5.12258e-008 -5.47131e-007 -1.10122e-007 -3.97569e-016 0 -3.18055e-015 0.0189954 -0.00119054 -6.0311e-005 -3.97569e-016 -1.59028e-015 3.18055e-015 -3.97569e-016 0 -3.18055e-015 0.01227 -0.00324832 -0.000678443 -1.19271e-015 2.54444e-014 -0 -3.97569e-016 0 -3.18055e-015 2.11132e-007 -2.49303e-008 1.78051e-008 3.97569e-016 -1.59028e-015 1.59028e-015 -2.50211 -1.61675 -0.079032 -1.31367e-006 9.44516 -2.37506 -6.76489 58.9802 3.82887 -2.0887e-007 -1.09503e-008 4.25017e-008 2.49792 -1.80448 0.16795 1.06263e-006 12.7835 2.46939 6.72153 58.8246 -3.79225 1.04956e-007 -5.49918e-009 -1.85106e-008 
31.7877 -14.8385 -6.28887 0 89.9969 -0 -0 -1.60131 -0 -0 -3.20259 -0 -0 -3.20261 -0 -0.00189633 -5.00288 52.9987 -0.00144463 3.33265 16.997 -0 -9.63576e-006 -0 -1.1857 -50.502 -45.5449 17.9662 -8.93356 -115.585 14.998 19.997 5.22386e-005 1.19271e-015 -1.59028e-015 -0 1.19271e-015 -1.59028e-015 -3.18055e-015 -1.19271e-015 -1.59028e-015 3.18055e-015 1.19271e-015 -1.59028e-015 -0 -0.0146175 -8.85387e-005 3.36944e-007 3.97569e-016 -3.18055e-015 -3.18055e-015 1.19271e-015 -1.59028e-015 -0 -0.0187493 -0.00117492 6.21115e-005 0 2.8625e-014 -0 1.19271e-015 -1.59028e-015 -0 -0.0122354 -0.00324006 0.000670458 1.98785e-015 -1.59028e-015 -9.54166e-015 1.19271e-015 -1.59028e-015 -0 1.19271e-015 -1.59028e-015 -3.18055e-015 -1.19271e-015 -1.59028e-015 3.18055e-015 -0 -9.63576e-006 -0 -31.8251 -50.5018 45.5355 -17.9687 -8.93559 115.579 -16.0012 19.9998 -0.00197656 4.66798e-008 2.97425e-007 -8.40487e-008 -2.57812e-007 -2.72495e-007 6.62436e-008 -1.64453e-007 3.22355e-007 -1.01854e-007 4.66798e-008 2.97425e-007 -8.40487e-008 0.014999 -9.12487e-005 4.79239e-007 -2.11133e-007 2.4928e-008 -1.78082e-008 4.66798e-008 2.97425e-007 -8.40487e-008 0.018995 -0.00118997 -5.93906e-005 -2.11134e-007 2.49274e-008 -1.7807e-008 4.66798e-008 2.97425e-007 -8.40487e-008 0.0122692 -0.00324857 -0.000677567 -2.11134e-007 2.49274e-008 -1.78018e-008 4.66798e-008 2.97425e-007 -8.40487e-008 -2.57812e-007 -2.72495e-007 6.62436e-008 -1.64453e-007 3.22355e-007 -1.01854e-007 -2.50211 -1.61675 -0.0790326 -5.68616e-007 9.44516 -2.37506 -6.76489 58.9802 3.82887 2.0887e-007 1.09503e-008 -4.25017e-008 2.49792 -1.80448 0.16795 2.85077e-006 12.7835 2.46939 6.72153 58.8246 -3.79225 -3.14867e-007 1.64976e-008 5.55319e-008 
31.7877 -14.8385 -6.28887 0 89.9969 -0 -0 -1.60131 -0 -0 -3.20259 -0 -0 -3.20261 -0 -0.00189633 -5.00288 52.9987 -0.00143139 3.0664 16.997 -0 -9.63576e-006 -0 -1.1857 -50.502 -45.5449 17.9662 -8.93356 -115.585 14.998 19.997 5.32698e-005 0 0 -0 -7.95139e-016 -1.59028e-015 -0 -0 -1.59028e-015 -0 0 0 -0 -0.0145914 -8.88152e-005 -4.20574e-006 -0 0 3.18055e-015 0 0 -0 -0.0187198 -0.00117249 6.05676e-005 7.95139e-016 -4.77083e-015 -6.36111e-015 0 0 -0 -0.0122358 -0.00323909 0.000672062 -8.82781e-032 -1.59028e-015 -3.18055e-015 0 0 -0 -7.95139e-016 -1.59028e-015 -0 -0 -1.59028e-015 -0 -0 -9.63576e-006 -0 -31.8251 -50.5018 45.5355 -17.9687 -8.93559 115.579 -16.0012 19.9998 -0.00197656 4.66798e-008 2.97425e-007 -8.40487e-008 -2.57812e-007 -2.72495e-007 6.62436e-008 -1.64453e-007 3.22355e-007 -1.01854e-007 4.66798e-008 2.97425e-007 -8.40487e-008 0.014999 -9.12487e-005 4.79239e-007 -2.11133e-007 2.4928e-008 -1.78082e-008 4.66798e-008 2.97425e-007 -8.40487e-008 0.018995 -0.00118997 -5.93906e-005 -2.11134e-007 2.49274e-008 -1.7807e-008 4.66798e-008 2.97425e-007 -8.40487e-008 0.0122692 -0.00324857 -0.000677567 -2.11134e-007 2.49274e-008 -1.78018e-008 4.66798e-008 2.97425e-007 -8.40487e-008 -2.57812e-007 -2.72495e-007 6.62436e-008 -1.64453e-007 3.22355e-007 -1.01854e-007 -2.50211 -1.61675 -0.0790326 -5.68616e-007 9.44516 -2.37506 -6.76489 58.9802 3.82887 2.0887e-007 1.09503e-008 -4.25017e-008 2.49792 -1.80448 0.16795 2.85077e-006 12.7835 2.46939 6.72153 58.8246 -3.79225 -3.14867e-007 1.64976e-008 5.55319e-008 
